# xmcd
#
# Track frame offsets:
#	150
#	15350
#	31429
#	43426
#	60830
#	82370
#	96405
#	106035
#	119199
#	143607
#	156229
#	178580
#	192906
#	206195
#	221941
#	233671
#	244443
#	258407
#	270121
#	284318
#	299646
#	325651
#	339311
#
# Disc length: 4698 seconds
#
# Revision: 0
# Processed by: cddbd v1.5.2PL0 Copyright (c) Steve Scherf et al.
# Submitted via: EasyCDDAExtractor 12.0.7.1
#
DISCID=61125817
DTITLE=Caio Cesar e Diego - Cantando com a Galera
DYEAR=2010
DGENRE=Sertanejo
TTITLE0=Em Frente Ao Espelho
TTITLE1=Pega Usa e Joga Fora
TTITLE2=Brilho no Olhar
TTITLE3=Me Apaixonei Pela Pessoa Errada
TTITLE4=Poutpurri - É Problema Meu-Beber Cair e Levantar-Cachaceiro
TTITLE5=Casinha no Pé da Serra
TTITLE6=Parece Castigo
TTITLE7=Comitiva do Amor
TTITLE8=Poutpurri - Gostosão-Chorando se Foi-Ê Saudade
TTITLE9=Fio de Cabelo
TTITLE10=Poutpurri - Rei do Gado-Caminhoneiro
TTITLE11=Veneno de Serpente
TTITLE12=Amor ou Sonho
TTITLE13=To Indo Pra Caconde
TTITLE14=Espaço pra Caramba
TTITLE15=Fabrica de Corno
TTITLE16=Anjo do Céu
TTITLE17=Daniane
TTITLE18=Animal
TTITLE19=Poutpurri - Como Reconquistar seu Amor-Kenga
TTITLE20=Poutpurri - Aparpa-Robocop Gay
TTITLE21=Poutpurri - Ilariê-Tindolele
TTITLE22=Do seu Lado
EXTD=
EXTT0=
EXTT1=
EXTT2=
EXTT3=
EXTT4=
EXTT5=
EXTT6=
EXTT7=
EXTT8=
EXTT9=
EXTT10=
EXTT11=
EXTT12=
EXTT13=
EXTT14=
EXTT15=
EXTT16=
EXTT17=
EXTT18=
EXTT19=
EXTT20=
EXTT21=
EXTT22=
PLAYORDER=
